<svg width="128" height="128" xmlns="http://www.w3.org/2000/svg">

 <g>
  <title>background</title>
  <rect fill="none" id="canvas_background" height="402" width="582" y="-1" x="-1"/>
 </g>
 <g>
  <title>Layer 1</title>
  <path id="svg_3" fill="#ff0000" d="m64,0c-35.344,0 -64,28.656 -64,64s28.656,64 64,64s64,-28.656 64,-64s-28.656,-64 -64,-64zm0,120c-30.875,0 -56,-25.125 -56,-56s25.125,-56 56,-56s56,25.125 56,56s-25.125,56 -56,56z"/>
  <path id="svg_6" fill="#ff0000" d="m75.313,64l16.969,-16.969c3.125,-3.125 3.125,-8.195 0,-11.313c-3.117,-3.125 -8.188,-3.125 -11.313,0l-16.969,16.97l-16.969,-16.969c-3.125,-3.125 -8.195,-3.125 -11.313,0c-3.125,3.117 -3.125,8.188 0,11.313l16.97,16.968l-16.969,16.969c-3.125,3.125 -3.125,8.195 0,11.313c3.117,3.125 8.188,3.125 11.313,0l16.968,-16.969l16.969,16.969c3.125,3.125 8.195,3.125 11.313,0c3.125,-3.117 3.125,-8.188 0,-11.313l-16.969,-16.969z"/>
 </g>
</svg>