<svg width="91" height="91" xmlns="http://www.w3.org/2000/svg">

 <g>
  <title>background</title>
  <rect fill="none" id="canvas_background" height="402" width="582" y="-1" x="-1"/>
 </g>
 <g>
  <title>Layer 1</title>
  <path id="svg_2" fill="#ffffff" d="m85.713,12.142l-79.852,0c-2.305,0 -4.174,-1.869 -4.174,-4.176c0,-2.305 1.869,-4.174 4.174,-4.174l79.852,0c2.305,0 4.174,1.869 4.174,4.174c0,2.307 -1.869,4.176 -4.174,4.176z"/>
  <path id="svg_3" fill="#ffffff" d="m85.713,49.858l-79.852,0c-2.305,0 -4.174,-1.869 -4.174,-4.175c0,-2.307 1.869,-4.176 4.174,-4.176l79.852,0c2.305,0 4.174,1.869 4.174,4.176c0,2.306 -1.869,4.175 -4.174,4.175z"/>
  <path id="svg_4" fill="#ffffff" d="m85.572047,87.571l-79.852,0c-2.305,0 -4.174,-1.869 -4.174,-4.176s1.869,-4.176 4.174,-4.176l79.852,0c2.305,0 4.174,1.869 4.174,4.176s-1.869,4.176 -4.174,4.176z"/>
 </g>
</svg>